inDegrees=no
num_controls=7
num_derivatives=13
num_iterations=131
num_multipliers=7
num_parameters=0
num_slacks=7
num_states=26
objective=4.917612
objective_accelerations=0.560916
objective_balance=0.006595
objective_effort=0.152244
objective_height=4.171480
objective_ligament=0.026378
solver_duration=1490.582147
status=Solve_Succeeded
success=true
DataType=double
version=3
OpenSimVersion=4.4-2022-07-23-0e9fedc
endheader
time	/jointset/ground_pelvis/pelvis_tilt/value	/jointset/ground_pelvis/pelvis_tx/value	/jointset/ground_pelvis/pelvis_ty/value	/jointset/hip_l/hip_flexion_l/value	/jointset/hip_l/hip_adduction_l/value	/jointset/hip_l/hip_rotation_l/value	/jointset/back/lumbar_extension/value	/jointset/patellofemoral_l/patellar_flexion_l/value	/jointset/knee_l/knee_flexion_l/value	/jointset/knee_l/knee_adduction_l/value	/jointset/knee_l/knee_rotation_l/value	/jointset/ankle_l/ankle_angle_l/value	/jointset/subtalar_l/subtalar_angle_l/value	/jointset/ground_pelvis/pelvis_tilt/speed	/jointset/ground_pelvis/pelvis_tx/speed	/jointset/ground_pelvis/pelvis_ty/speed	/jointset/hip_l/hip_flexion_l/speed	/jointset/hip_l/hip_adduction_l/speed	/jointset/hip_l/hip_rotation_l/speed	/jointset/back/lumbar_extension/speed	/jointset/patellofemoral_l/patellar_flexion_l/speed	/jointset/knee_l/knee_flexion_l/speed	/jointset/knee_l/knee_adduction_l/speed	/jointset/knee_l/knee_rotation_l/speed	/jointset/ankle_l/ankle_angle_l/speed	/jointset/subtalar_l/subtalar_angle_l/speed	/forceset/tau_hip_flexion_l	/forceset/tau_hip_adduction_l	/forceset/tau_hip_rotation_l	/forceset/tau_knee_flexion_l	/forceset/tau_ankle_angle_l	/forceset/tau_subtalar_angle_l	/forceset/tau_lumbar_extension	lambda_cid13_p0	lambda_cid13_p1	lambda_cid13_p2	lambda_cid13_p3	lambda_cid13_p4	lambda_cid13_p5	lambda_cid14_p0	/jointset/ground_pelvis/pelvis_tilt/accel	/jointset/ground_pelvis/pelvis_tx/accel	/jointset/ground_pelvis/pelvis_ty/accel	/jointset/hip_l/hip_flexion_l/accel	/jointset/hip_l/hip_adduction_l/accel	/jointset/hip_l/hip_rotation_l/accel	/jointset/back/lumbar_extension/accel	/jointset/patellofemoral_l/patellar_flexion_l/accel	/jointset/knee_l/knee_flexion_l/accel	/jointset/knee_l/knee_adduction_l/accel	/jointset/knee_l/knee_rotation_l/accel	/jointset/ankle_l/ankle_angle_l/accel	/jointset/subtalar_l/subtalar_angle_l/accel	gamma_cid13_p0	gamma_cid13_p1	gamma_cid13_p2	gamma_cid13_p3	gamma_cid13_p4	gamma_cid13_p5	gamma_cid14_p0
1.5	-0.2803561245899502	0.0683272675224349	0.8115861368075384	0.8694964227426571	-0.3682612832581448	-0.04333549992315881	-0.3157064386152454	0.7456561615597551	0.7456561615592908	-0.08021646447948214	-0.1595823103223784	0.2674721100525787	0.1387069233128353	0.3249696735570334	0.2374847549276587	0.3997490319040217	-1.94246828158123	0.01054710579056537	-0.5336873636875916	0.6197678448887174	-2.014177865105077	-2.014177865105782	-0.2524958555516811	0.1092376418005576	-0.5514279616757923	-0.1925444638857235	-0.1052996702104192	0.02403891349337976	0.0130784669456988	-0.1445965588364493	-0.0298175700591596	0.008224764232662201	0.109358540738542	-33.48775463399836	1.098945050137437	0.9059131658342249	-2.877205742765319	-433.5641526215247	-63.66733765249463	-13.05549286933423	0.3705048113736983	0.4619833740520048	-0.6579957842095463	-1.024357376146985	0.2769166250376756	-0.2303754139771577	1.315600423995063	-0.9987859613145271	-0.998785961314527	-0.07217095968667087	0.4916356771440439	-0.3595897746217238	0.4115406349218077	1.868558374062057e-07	2.974153446136728e-06	-3.105575717568207e-06	2.608956681430701e-07	8.136596135592842e-07	2.819688659695203e-06	5.621454136082639e-07
1.51	-0.2770878458672174	0.07072491279205077	0.8155499525202584	0.8500217609082453	-0.3681440270631182	-0.04868368236250696	-0.3094446670995721	0.725466186519676	0.7254661865194165	-0.0827488189182304	-0.1584683201405455	0.2619398134357763	0.1367992606081566	0.3286256970398694	0.2420058797107701	0.3929286203931556	-1.952186363292356	0.012902610285005	-0.5358597635947896	0.632485579862353	-2.023536581565483	-2.023536581565924	-0.2539735230574569	0.1135776387959986	-0.5549468870175632	-0.1889683930766916	-0.1017823608170005	0.02276517625948415	0.01395013056895359	-0.1417826794444605	-0.02949342653852249	0.006811430525724635	0.1062732055039441	-33.35383197346766	1.623727225464645	0.8971555799807781	-2.704000410159592	-431.0600081397525	-63.09399728682129	-13.84051385371227	0.3541132923526201	0.4414863686886955	-0.7067262840427837	-0.9038467451279886	0.214740788047892	-0.1966526222774429	1.234728276293664	-0.8624488043149201	-0.8624488042752105	-0.1849157587742098	0.4072982331070035	-0.3352544931843661	0.3333594837072084	1.771137798430019e-07	3.450801117414943e-06	-2.980434793982327e-06	3.270656637037709e-07	8.082328867020137e-07	3.030842043921362e-06	5.822364915315287e-07
1.52	-0.2737848144745367	0.07316663117714714	0.8194430316279658	0.8304582556214112	-0.3680032411378685	-0.05405078486956397	-0.3030587445857137	0.705191017451831	0.7051910174517437	-0.0852958202546797	-0.1573105066842296	0.2563748854497092	0.1349279024475307	0.331920207547274	0.2462993780237563	0.3856017109016261	-1.960236972064793	0.01525305183547305	-0.5374713772294344	0.6445980445258347	-2.031216670662336	-2.031216670662513	-0.2554252350732844	0.1180022966859542	-0.5579542355285099	-0.1852835550751303	-0.09826505142359412	0.02149143902557279	0.01482179419186207	-0.1389688000524576	-0.02916928301788336	0.005398096818773082	0.1031878702693354	-33.21605994672304	2.140517816161925	0.8980321528721191	-2.57024659606789	-428.5335526593869	-62.60757486466775	-14.62441447800327	0.2982022162873166	0.4164580800270888	-0.7592953803422167	-0.6908627884092158	0.2759040362433516	-0.1182181594664867	1.194546361964199	-0.6630604886039623	-0.6630604886039619	-0.06697986169705655	0.5085678560469784	-0.2572744084567523	0.4332940734276914	1.609374183239663e-07	3.809778543759403e-06	-2.814383466555622e-06	3.837957050473447e-07	7.773788059415671e-07	3.152925952648466e-06	5.898573867345681e-07
1.53	-0.2704507131639807	0.07565004445297586	0.8232603702721181	0.8108227878154313	-0.367838844268335	-0.0594323093568911	-0.2965547781478204	0.6848476187106788	0.6848476187104374	-0.08785628796917364	-0.1561086816145582	0.2507824682927871	0.1330941523463135	0.3348387901861013	0.2503341048928235	0.3777893976696193	-1.966567072395415	0.01762654710814346	-0.5387608032169153	0.6560786693575046	-2.037176466346751	-2.037176466346533	-0.2566482789489034	0.122365097263	-0.5604491934596895	-0.1814480371863103	-0.09485046049232523	0.02010381754470558	0.0156756010488369	-0.1360596278982814	-0.02925429805884204	0.003887934878627074	0.100153318982488	-33.23283914981815	2.717397249556643	0.8996355632374449	-2.243477868997247	-426.2254625668101	-62.05043342279162	-15.40598542168327	0.279514336450419	0.3896952526735337	-0.8035546280894668	-0.560631451545243	0.2180761284717301	-0.1228065306148457	1.107334489248507	-0.5195636680289758	-0.5195636679697259	-0.1464552579089915	0.4000992083996586	-0.2334747492852436	0.3610869487902748	1.379246088518593e-07	4.043731334861749e-06	-2.604864835048041e-06	4.30495795035221e-07	7.195081616589961e-07	3.180373543657826e-06	5.842287127973685e-07
1.54	-0.2670892604172858	0.07817234804996047	0.8269973147172581	0.7911327094469099	-0.3676507116749375	-0.06482442844654122	-0.2899395026725145	0.6644531971007283	0.6644531971003782	-0.09042828384378446	-0.1548632359292059	0.2451675279037856	0.1312992386844203	0.3373904947757428	0.254077442254931	0.3695228710992688	-1.9711590845723	0.02000019660853169	-0.5395902976934374	0.6668598520083923	-2.041421244417915	-2.041421244417301	-0.2577308671211196	0.1267264198347011	-0.5624588819443278	-0.1775162672102499	-0.09143586956107173	0.01871619606379314	0.01652940790617604	-0.1331504557441351	-0.02933931309981525	0.002377772938413265	0.09711876769563586	-33.24868970899804	3.287465321408717	0.9099206650572458	-1.948405174608946	-423.9419020822388	-61.58152264288881	-16.17663503574743	0.2248266064500624	0.3581801786352314	-0.8501380480109173	-0.3432451576617954	0.2759348817868737	-0.02623185727466698	1.054657925807682	-0.3200569659538346	-0.3200569659538361	-0.03888872101652978	0.5082722549780307	-0.1602205191483261	0.4525444908758263	1.143622885890165e-07	4.309863847334693e-06	-2.391505079034372e-06	4.787507269957325e-07	6.609522788257553e-07	3.207974337802049e-06	5.80760743513175e-07
1.55	-0.2637041876174837	0.08073061749132331	0.8306494006992203	0.7714054829612108	-0.367438749507417	-0.07022362441551215	-0.2832199430993111	0.6440251039374836	0.6440251039374285	-0.09300964967075695	-0.1535749392317485	0.2395350665521561	0.1295443328848618	0.3395593371459669	0.2575257733902049	0.3608270188214308	-1.973991645537272	0.02238994356487471	-0.5401728391600779	0.6769272932699267	-2.043900369429761	-2.043900369429299	-0.2585223281730838	0.130930508750287	-0.5639441630874317	-0.1734479605749743	-0.08796054674365342	0.01719608569160326	0.0173305388848876	-0.1304949165439556	-0.02914068365951182	0.0006647181571259361	0.09405578035674432	-33.19998705483567	3.952331280920309	0.8845487599220559	-1.688013941107081	-421.8705615202126	-60.98959666593434	-16.93150164088163	0.2032197091036214	0.3306700073509731	-0.8892910609509054	-0.2090570645154859	0.2199652910765434	-0.0622874007591071	0.964071821751855	-0.167403296161252	-0.1674032961841398	-0.09565852507132958	0.37579848394786	-0.1291484874026806	0.3860072054678504	9.016683632815216e-08	4.613072995299845e-06	-2.173719679568039e-06	5.287971073160194e-07	6.016068820102207e-07	3.235751648601661e-06	5.797822817639669e-07
1.56	-0.2602993650626232	0.08332187232931415	0.8342125317097477	0.751658771766136	-0.3672029957326308	-0.075626250221034	-0.2764034521944076	0.6235811069186282	0.6235811069189042	-0.09559820685365272	-0.1522447373903897	0.2338904590739937	0.1278305168427785	0.341340445788008	0.2606745215805358	0.3517318768124047	-1.975056026446266	0.02475851806196715	-0.5402762650027372	0.6862461183484959	-2.044602015536058	-2.044602015535749	-0.2591691383364588	0.1351074486298372	-0.5648881072509772	-0.1692983157151265	-0.08448522392628081	0.0156759753193473	0.01813166986399587	-0.1278393773438253	-0.02894205421923123	-0.001048336624257366	0.09099279301782968	-33.15210455744344	4.611176215972693	0.8671793777243136	-1.452255438571483	-419.8523854119064	-60.4837261986356	-17.66605781618205	0.1472798608133559	0.2982635896467301	-0.9299959942484989	0.01039085353392919	0.2717003899367074	0.06959126752161476	0.9049346892145342	0.03543881515578775	0.03543881515578631	-0.009958543298766637	0.5028424477709112	-0.05195312323646938	0.4688121357903169	6.548091482465286e-08	4.8435123681902e-06	-1.959121637351629e-06	5.689130892437164e-07	5.378822653551469e-07	3.221793209210866e-06	5.73760727968946e-07
1.57	-0.2568787533943227	0.08594303444264444	0.8376827982023638	0.7319104731730023	-0.3669435050982359	-0.0810282108481077	-0.2694975169031271	0.6031391671245813	0.6031391671246574	-0.09819188520323362	-0.1508733201956018	0.2282391670185388	0.1261588460455939	0.3427173539398337	0.2634991537194073	0.3422647665815398	-1.974302053280591	0.02713352396242913	-0.5400313904467196	0.6948048417527416	-2.043485399545703	-2.043485399546034	-0.2595513881877314	0.139172314528491	-0.5652850503689927	-0.1650265952551455	-0.08112077647408952	0.01404851122898302	0.01888063585899815	-0.125062179076157	-0.0290573487259288	-0.002847341781961419	0.08800456521693516	-33.2252731176534	5.320608434449785	0.8508088706543649	-1.079361725684408	-418.0532710356215	-59.92111707019632	-18.37553149869182	0.1232288112417051	0.2658734347463935	-0.9634810384666281	0.1531593452146716	0.219181874899854	0.01512989798577755	0.8109264425745037	0.1947436825716165	0.1947436824755826	-0.04939819298858374	0.3575074324047851	-0.02062122825307979	0.4071383211136365	4.018190676785988e-08	4.982989522237058e-06	-1.748507791697624e-06	5.966160731806762e-07	4.686836239006491e-07	3.155665082082066e-06	5.614353091166593e-07
1.58	-0.253446306140732	0.08859070495911101	0.8410567110924789	0.7121787660709482	-0.366660508167879	-0.08642508385995384	-0.2625100773224952	0.5827173876287336	0.5827173876286443	-0.1007887940485838	-0.1494614145875978	0.22258649426747	0.1245300497170109	0.3437075628466549	0.2659762022077899	0.3324611563122788	-1.971737728229696	0.02945977725484979	-0.5392587419569482	0.7025469762187984	-2.040569955891498	-2.04056995589247	-0.2598152375168968	0.1432051312868363	-0.5651642463737589	-0.1607234219947032	-0.07775632902191268	0.01242104713858038	0.01962960185435286	-0.1222849808085271	-0.02917264323264002	-0.004646346939721997	0.0850163374160391	-33.30142799714573	6.025517731475428	0.8409240356019868	-0.7248101838736405	-416.3407982535966	-59.44008336396573	-19.0551044254476	0.06994001181236265	0.2287468595490742	-0.9972960019277072	0.3724612305780464	0.2619498683283915	0.1751460542723593	0.7416169015766753	0.3952043479255785	0.395204347925578	0.01372156112260701	0.4964326197092369	0.05159629941354401	0.4751026958825968	1.281857856380381e-08	5.154242370370535e-06	-1.514647831301039e-06	6.273764449729761e-07	3.911104929423765e-07	3.078800993043557e-06	5.492526119119014e-07
